<svg width="228" height="32" viewBox="0 0 228 32" fill="none" xmlns="http://www.w3.org/2000/svg">
<path d="M16.16 31.0801C12.96 31.0801 10.1334 30.4267 7.68002 29.1201C5.25335 27.8134 3.36002 26.0001 2.00002 23.6801C0.666686 21.3334 1.96397e-05 18.6267 1.96397e-05 15.5601C1.96397e-05 12.4934 0.666686 9.80006 2.00002 7.48006C3.36002 5.16006 5.25335 3.34672 7.68002 2.04006C10.1334 0.73339 12.96 0.0800576 16.16 0.0800576C17.76 0.0800576 19.1867 0.226724 20.44 0.520057C21.6934 0.813391 22.68 1.08006 23.4 1.32006L25.24 1.64006C25.64 1.69339 25.9334 1.78672 26.12 1.92006C26.3067 2.02672 26.44 2.24006 26.52 2.56006C26.6 2.88006 26.6534 3.38672 26.68 4.08006L27.12 10.8001C27.1467 11.0401 27.0267 11.1867 26.76 11.2401L25.2 11.4401C24.9334 11.4934 24.76 11.3867 24.68 11.1201L23.12 7.36006C22.9334 6.93339 22.7734 6.61339 22.64 6.40006C22.5067 6.18672 22.3067 5.94672 22.04 5.68006C21.2934 5.04006 20.44 4.56006 19.48 4.24006C18.5467 3.92006 17.5067 3.76006 16.36 3.76006C14.4934 3.76006 12.88 4.22672 11.52 5.16006C10.16 6.09339 9.12002 7.45339 8.40002 9.24006C7.68002 11.0001 7.32002 13.1067 7.32002 15.5601C7.32002 18.0134 7.66669 20.1201 8.36002 21.8801C9.08002 23.6401 10.0934 25.0001 11.4 25.9601C12.7334 26.9201 14.2934 27.4001 16.08 27.4001C17.28 27.4001 18.36 27.2534 19.32 26.9601C20.3067 26.6401 21.1867 26.1734 21.96 25.5601C22.3067 25.1867 22.5467 24.9067 22.68 24.7201C22.8134 24.5067 22.9467 24.2401 23.08 23.9201L24.68 20.0401C24.76 19.7734 24.9334 19.6667 25.2 19.7201L26.76 19.9201C27.0267 19.9734 27.1467 20.1201 27.12 20.3601L26.64 27.9201C26.6134 28.3201 26.5467 28.6267 26.44 28.8401C26.36 29.0267 26.16 29.1867 25.84 29.3201C25.5467 29.4267 25.0534 29.5467 24.36 29.6801L23.4 29.8401C22.68 30.0801 21.6934 30.3467 20.44 30.6401C19.1867 30.9334 17.76 31.0801 16.16 31.0801ZM42.0731 31.0801C39.8865 31.0801 37.9665 30.6401 36.3131 29.7601C34.6598 28.8801 33.3665 27.6534 32.4331 26.0801C31.5265 24.5067 31.0731 22.6801 31.0731 20.6001C31.0731 18.5467 31.5265 16.7467 32.4331 15.2001C33.3665 13.6267 34.6598 12.4001 36.3131 11.5201C37.9665 10.6401 39.8865 10.2001 42.0731 10.2001C44.2865 10.2001 46.2198 10.6401 47.8731 11.5201C49.5265 12.3734 50.8198 13.5867 51.7531 15.1601C52.6865 16.7067 53.1531 18.5201 53.1531 20.6001C53.1531 22.6801 52.6865 24.5067 51.7531 26.0801C50.8198 27.6534 49.5265 28.8801 47.8731 29.7601C46.2198 30.6401 44.2865 31.0801 42.0731 31.0801ZM42.1931 27.5201C43.5798 27.5201 44.6598 26.9734 45.4331 25.8801C46.2331 24.7601 46.6331 23.0801 46.6331 20.8401C46.6331 19.2934 46.4331 18.0001 46.0331 16.9601C45.6331 15.9201 45.0731 15.1334 44.3531 14.6001C43.6598 14.0401 42.8598 13.7601 41.9531 13.7601C40.5665 13.7601 39.4865 14.3067 38.7131 15.4001C37.9398 16.4934 37.5531 18.1734 37.5531 20.4401C37.5531 22.7067 37.9798 24.4534 38.8331 25.6801C39.7131 26.9067 40.8331 27.5201 42.1931 27.5201ZM57.9875 30.5601V7.92006H64.3475V30.5601H57.9875ZM56.1475 30.5601C55.8809 30.5601 55.7475 30.4267 55.7475 30.1601V29.4001C55.7475 29.1334 55.8809 28.9601 56.1475 28.8801L56.9875 28.6401C57.4675 28.4534 57.7475 28.3067 57.8275 28.2001C57.9342 28.0667 57.9875 27.7734 57.9875 27.3201V23.3601H64.3475V27.2401C64.3475 27.7201 64.3875 28.0267 64.4675 28.1601C64.5742 28.2934 64.8409 28.4267 65.2675 28.5601L66.8675 28.9201C67.1075 29.0001 67.2275 29.1734 67.2275 29.4401V30.1601C67.2275 30.4267 67.0942 30.5601 66.8275 30.5601H56.1475ZM57.9875 7.96006V1.92006L58.7475 3.72006L55.6675 3.04006C55.4275 2.98672 55.3075 2.82672 55.3075 2.56006V1.64006C55.3075 1.37339 55.4409 1.24006 55.7075 1.24006L63.1475 0.0800576C63.5742 0.0267234 63.8809 0.0533897 64.0675 0.160057C64.2542 0.266723 64.3475 0.506724 64.3475 0.880057V7.96006H57.9875ZM70.8781 30.5601V7.92006H77.2381V30.5601H70.8781ZM69.0381 30.5601C68.7715 30.5601 68.6381 30.4267 68.6381 30.1601V29.4001C68.6381 29.1334 68.7715 28.9601 69.0381 28.8801L69.8781 28.6401C70.3581 28.4534 70.6381 28.3067 70.7181 28.2001C70.8248 28.0667 70.8781 27.7734 70.8781 27.3201V23.3601H77.2381V27.2401C77.2381 27.7201 77.2781 28.0267 77.3581 28.1601C77.4648 28.2934 77.7315 28.4267 78.1581 28.5601L79.7581 28.9201C79.9981 29.0001 80.1181 29.1734 80.1181 29.4401V30.1601C80.1181 30.4267 79.9848 30.5601 79.7181 30.5601H69.0381ZM70.8781 7.96006V1.92006L71.6381 3.72006L68.5581 3.04006C68.3181 2.98672 68.1981 2.82672 68.1981 2.56006V1.64006C68.1981 1.37339 68.3315 1.24006 68.5981 1.24006L76.0381 0.0800576C76.4648 0.0267234 76.7715 0.0533897 76.9581 0.160057C77.1448 0.266723 77.2381 0.506724 77.2381 0.880057V7.96006H70.8781ZM92.4088 31.0801C90.5688 31.0801 88.8621 30.6801 87.2888 29.8801C85.7154 29.0534 84.4488 27.8667 83.4888 26.3201C82.5554 24.7467 82.0888 22.8267 82.0888 20.5601C82.0888 18.2934 82.5688 16.4001 83.5288 14.8801C84.5154 13.3334 85.8088 12.1734 87.4088 11.4001C89.0088 10.6001 90.7288 10.2001 92.5688 10.2001C94.2754 10.2001 95.8088 10.5734 97.1688 11.3201C98.5288 12.0667 99.6088 13.1201 100.409 14.4801C101.209 15.8401 101.609 17.4401 101.609 19.2801C101.609 19.5201 101.595 19.7734 101.569 20.0401C101.569 20.3067 101.555 20.5867 101.529 20.8801C101.475 21.1467 101.329 21.2801 101.089 21.2801H87.7688V18.5201H97.1688L96.1288 19.1201C96.1288 18.9867 96.1288 18.8801 96.1288 18.8001C96.1288 18.6934 96.1288 18.5867 96.1288 18.4801C96.1288 17.5734 95.9554 16.7601 95.6088 16.0401C95.2888 15.3201 94.8488 14.7467 94.2888 14.3201C93.7288 13.8934 93.0888 13.6801 92.3688 13.6801C91.0621 13.6801 90.0488 14.2401 89.3288 15.3601C88.6354 16.4534 88.2888 18.0534 88.2888 20.1601C88.2888 21.4934 88.5421 22.6934 89.0488 23.7601C89.5554 24.8267 90.2621 25.6801 91.1688 26.3201C92.1021 26.9334 93.1954 27.2401 94.4488 27.2401C96.2088 27.2401 97.7688 26.7734 99.1288 25.8401C99.3688 25.6801 99.5421 25.7201 99.6488 25.9601L100.249 27.0801C100.355 27.2667 100.329 27.4801 100.169 27.7201C99.2621 28.7601 98.1288 29.5867 96.7688 30.2001C95.4088 30.7867 93.9554 31.0801 92.4088 31.0801ZM114.905 31.0801C112.905 31.0801 111.132 30.6401 109.585 29.7601C108.065 28.8534 106.878 27.6267 106.025 26.0801C105.172 24.5067 104.745 22.6801 104.745 20.6001C104.745 18.5467 105.198 16.7467 106.105 15.2001C107.012 13.6267 108.278 12.4001 109.905 11.5201C111.532 10.6401 113.412 10.2001 115.545 10.2001C116.665 10.2001 117.812 10.3201 118.985 10.5601C120.158 10.7734 121.278 11.0801 122.345 11.4801C122.558 11.6401 122.652 11.8267 122.625 12.0401L122.025 18.3601C121.972 18.6267 121.825 18.7601 121.585 18.7601H120.105C119.838 18.7601 119.665 18.6267 119.585 18.3601L118.065 13.2401L120.145 14.3601C119.612 14.2267 119.025 14.1201 118.385 14.0401C117.745 13.9334 117.078 13.8801 116.385 13.8801C114.652 13.8801 113.372 14.3867 112.545 15.4001C111.718 16.3867 111.305 17.9334 111.305 20.0401C111.305 21.5334 111.532 22.8267 111.985 23.9201C112.438 24.9867 113.092 25.8134 113.945 26.4001C114.825 26.9601 115.865 27.2401 117.065 27.2401C117.918 27.2401 118.718 27.1334 119.465 26.9201C120.212 26.6801 120.945 26.3201 121.665 25.8401C121.852 25.6801 122.025 25.7201 122.185 25.9601L122.785 27.0801C122.918 27.2667 122.892 27.4801 122.705 27.7201C121.745 28.7867 120.585 29.6134 119.225 30.2001C117.892 30.7867 116.452 31.0801 114.905 31.0801ZM133.67 31.0401C131.59 31.0401 130.084 30.4934 129.15 29.4001C128.217 28.3067 127.75 26.5601 127.75 24.1601V12.0401L127.99 10.6801V6.72006C127.99 6.48006 128.124 6.32006 128.39 6.24006C128.817 6.10672 129.35 6.00006 129.99 5.92006C130.657 5.81339 131.324 5.72006 131.99 5.64006C132.684 5.56006 133.257 5.52006 133.71 5.52006C133.977 5.57339 134.11 5.72006 134.11 5.96006V24.0001C134.11 25.1467 134.377 25.9601 134.91 26.4401C135.444 26.9201 136.35 27.1601 137.63 27.1601C137.924 27.1601 138.257 27.1467 138.63 27.1201C139.004 27.0667 139.404 27.0001 139.83 26.9201C140.07 26.8667 140.217 26.9734 140.27 27.2401L140.35 28.3601C140.404 28.6001 140.324 28.8134 140.11 29.0001C139.657 29.3734 139.057 29.7201 138.31 30.0401C137.564 30.3334 136.79 30.5734 135.99 30.7601C135.19 30.9467 134.417 31.0401 133.67 31.0401ZM125.47 13.3601C125.23 13.3601 125.137 13.2267 125.19 12.9601L125.51 11.4401C125.564 11.2001 125.724 11.0534 125.99 11.0001L127.99 10.6801H137.15L140.11 10.5201C140.377 10.4667 140.51 10.5867 140.51 10.8801C140.537 11.2267 140.537 11.5867 140.51 11.9601C140.484 12.3067 140.43 12.6534 140.35 13.0001C140.27 13.2401 140.097 13.3601 139.83 13.3601H125.47ZM144.918 30.5601V18.0801H151.278V30.5601H144.918ZM143.078 30.5601C142.838 30.5601 142.718 30.4267 142.718 30.1601V29.4001C142.718 29.1334 142.838 28.9601 143.078 28.8801L143.918 28.6401C144.398 28.4534 144.678 28.3067 144.758 28.2001C144.864 28.0667 144.918 27.7734 144.918 27.3201V23.3601H151.278V27.2401C151.278 27.7201 151.318 28.0267 151.398 28.1601C151.504 28.2934 151.771 28.4267 152.198 28.5601L153.798 28.9201C154.038 29.0001 154.158 29.1734 154.158 29.4401V30.1601C154.158 30.4267 154.024 30.5601 153.758 30.5601H143.078ZM144.918 18.0801V12.0801L145.678 13.8401L142.638 13.1601C142.371 13.1067 142.238 12.9467 142.238 12.6801V11.8001C142.238 11.5067 142.371 11.3601 142.638 11.3601L150.078 10.2401C150.504 10.1601 150.811 10.1734 150.998 10.2801C151.184 10.3867 151.278 10.6401 151.278 11.0401V18.0801H144.918ZM148.158 7.60006C147.064 7.60006 146.184 7.32006 145.518 6.76006C144.878 6.20006 144.558 5.44006 144.558 4.48006C144.558 3.54672 144.878 2.80006 145.518 2.24006C146.184 1.68006 147.064 1.40006 148.158 1.40006C149.224 1.40006 150.078 1.68006 150.718 2.24006C151.384 2.80006 151.718 3.54672 151.718 4.48006C151.718 5.44006 151.384 6.20006 150.718 6.76006C150.078 7.32006 149.224 7.60006 148.158 7.60006ZM167.698 31.0801C165.511 31.0801 163.591 30.6401 161.938 29.7601C160.285 28.8801 158.991 27.6534 158.058 26.0801C157.151 24.5067 156.698 22.6801 156.698 20.6001C156.698 18.5467 157.151 16.7467 158.058 15.2001C158.991 13.6267 160.285 12.4001 161.938 11.5201C163.591 10.6401 165.511 10.2001 167.698 10.2001C169.911 10.2001 171.845 10.6401 173.498 11.5201C175.151 12.3734 176.445 13.5867 177.378 15.1601C178.311 16.7067 178.778 18.5201 178.778 20.6001C178.778 22.6801 178.311 24.5067 177.378 26.0801C176.445 27.6534 175.151 28.8801 173.498 29.7601C171.845 30.6401 169.911 31.0801 167.698 31.0801ZM167.818 27.5201C169.205 27.5201 170.285 26.9734 171.058 25.8801C171.858 24.7601 172.258 23.0801 172.258 20.8401C172.258 19.2934 172.058 18.0001 171.658 16.9601C171.258 15.9201 170.698 15.1334 169.978 14.6001C169.285 14.0401 168.485 13.7601 167.578 13.7601C166.191 13.7601 165.111 14.3067 164.338 15.4001C163.565 16.4934 163.178 18.1734 163.178 20.4401C163.178 22.7067 163.605 24.4534 164.458 25.6801C165.338 26.9067 166.458 27.5201 167.818 27.5201ZM198.453 18.1201C198.453 17.1067 198.159 16.3334 197.573 15.8001C196.986 15.2667 196.146 15.0001 195.053 15.0001C194.306 15.0001 193.506 15.1734 192.653 15.5201C191.826 15.8667 191.013 16.3467 190.213 16.9601L189.613 15.9201C190.226 14.8001 190.999 13.8134 191.933 12.9601C192.866 12.0801 193.906 11.4001 195.053 10.9201C196.199 10.4401 197.399 10.2001 198.653 10.2001C200.813 10.2001 202.373 10.7734 203.333 11.9201C204.293 13.0401 204.773 14.8134 204.773 17.2401V30.5601H198.453V18.1201ZM184.293 30.5601V18.1201H190.653V30.5601H184.293ZM182.453 30.5601C182.213 30.5601 182.093 30.4267 182.093 30.1601V29.4001C182.093 29.1334 182.213 28.9601 182.453 28.8801L183.293 28.6401C183.773 28.4534 184.053 28.3067 184.133 28.2001C184.239 28.0667 184.293 27.7734 184.293 27.3201V23.3601H190.653V27.2401C190.653 27.7201 190.693 28.0267 190.773 28.1601C190.879 28.2934 191.146 28.4267 191.573 28.5601L193.173 28.9201C193.413 29.0001 193.533 29.1734 193.533 29.4401V30.1601C193.533 30.4267 193.399 30.5601 193.133 30.5601H182.453ZM196.613 30.5601C196.346 30.5601 196.213 30.4267 196.213 30.1601V29.4001C196.213 29.1334 196.346 28.9601 196.613 28.8801L197.453 28.6401C197.906 28.4534 198.186 28.3067 198.293 28.2001C198.399 28.0667 198.453 27.7734 198.453 27.3201V23.3601H204.773V27.2401C204.773 27.7201 204.813 28.0267 204.893 28.1601C204.999 28.2934 205.279 28.4267 205.733 28.5601L207.333 28.9201C207.573 29.0001 207.693 29.1734 207.693 29.4401V30.1601C207.693 30.4267 207.559 30.5601 207.293 30.5601H196.613ZM184.293 18.1201V12.0801L185.053 13.8801L182.013 13.2001C181.746 13.1467 181.613 12.9867 181.613 12.7201V11.8001C181.613 11.5601 181.746 11.4001 182.013 11.3201L189.053 10.2401C189.506 10.1867 189.813 10.2134 189.973 10.3201C190.159 10.4267 190.253 10.6667 190.253 11.0401V15.4801L190.653 16.1201V18.1201H184.293ZM220.861 18.4801C222.541 19.0401 223.848 19.6001 224.781 20.1601C225.741 20.7201 226.408 21.3334 226.781 22.0001C227.181 22.6667 227.381 23.4801 227.381 24.4401C227.381 25.7734 227.008 26.9334 226.261 27.9201C225.515 28.9067 224.448 29.6801 223.061 30.2401C221.701 30.8001 220.115 31.0801 218.301 31.0801C216.781 31.0801 215.435 30.9467 214.261 30.6801C213.088 30.4134 212.115 30.1334 211.341 29.8401C211.101 29.7334 210.981 29.5601 210.981 29.3201L210.621 23.6401C210.621 23.4001 210.755 23.2534 211.021 23.2001L212.021 23.1201C212.261 23.0934 212.435 23.2134 212.541 23.4801L212.861 24.4401C213.341 25.6134 214.008 26.5334 214.861 27.2001C215.715 27.8401 216.848 28.1601 218.261 28.1601C219.408 28.1601 220.315 27.9601 220.981 27.5601C221.648 27.1334 221.981 26.5601 221.981 25.8401C221.981 25.4401 221.848 25.0934 221.581 24.8001C221.341 24.5067 220.888 24.2001 220.221 23.8801C219.581 23.5601 218.675 23.1867 217.501 22.7601C215.688 22.0934 214.275 21.4667 213.261 20.8801C212.275 20.2934 211.595 19.6534 211.221 18.9601C210.848 18.2667 210.661 17.4267 210.661 16.4401C210.661 14.5201 211.461 13.0001 213.061 11.8801C214.688 10.7334 216.848 10.1601 219.541 10.1601C220.821 10.1601 221.981 10.2801 223.021 10.5201C224.088 10.7334 224.915 10.9601 225.501 11.2001C225.741 11.3067 225.861 11.4934 225.861 11.7601V16.5601C225.861 16.8001 225.728 16.9467 225.461 17.0001L224.421 17.0401C224.155 17.0667 223.995 16.9334 223.941 16.6401L223.781 15.9601C223.595 15.0001 223.155 14.2934 222.461 13.8401C221.795 13.3601 220.875 13.1201 219.701 13.1201C218.661 13.1201 217.821 13.3201 217.181 13.7201C216.568 14.1201 216.261 14.6667 216.261 15.3601C216.261 15.7867 216.381 16.1467 216.621 16.4401C216.861 16.7334 217.315 17.0401 217.981 17.3601C218.675 17.6534 219.635 18.0267 220.861 18.4801Z" fill="white"/>
</svg>
