<svg width="36" height="36" viewBox="0 0 36 36" fill="none" xmlns="http://www.w3.org/2000/svg">
<path d="M18 18C23.6812 18 28.2857 13.9711 28.2857 9C28.2857 4.02891 23.6812 0 18 0C12.3188 0 7.71429 4.02891 7.71429 9C7.71429 13.9711 12.3188 18 18 18ZM25.2 20.25H23.858C22.0741 20.9672 20.0893 21.375 18 21.375C15.9107 21.375 13.9339 20.9672 12.142 20.25H10.8C4.8375 20.25 0 24.4828 0 29.7V32.625C0 34.4883 1.72768 36 3.85714 36H32.1429C34.2723 36 36 34.4883 36 32.625V29.7C36 24.4828 31.1625 20.25 25.2 20.25Z" fill="black"/>
</svg>
