<svg width="25" height="25" viewBox="0 0 25 25" fill="none" xmlns="http://www.w3.org/2000/svg">
<g clip-path="url(#clip0_107_56)">
<path d="M24.7857 0H1.21429C-0.560268 0 -2 1.43973 -2 3.21429V26.7857C-2 28.5603 -0.560268 30 1.21429 30H24.7857C26.5603 30 28 28.5603 28 26.7857V3.21429C28 1.43973 26.5603 0 24.7857 0ZM21.5112 10.6339C21.5246 10.8214 21.5246 11.0156 21.5246 11.2031C21.5246 17.0089 17.1049 23.6987 9.02902 23.6987C6.53795 23.6987 4.22768 22.9754 2.28571 21.7299C2.64062 21.7701 2.98214 21.7835 3.34375 21.7835C5.39955 21.7835 7.28795 21.0871 8.79464 19.9085C6.86607 19.8683 5.24554 18.6027 4.68973 16.8616C5.36607 16.9621 5.97545 16.9621 6.67188 16.7812C4.66295 16.3728 3.15625 14.6049 3.15625 12.4687V12.4152C3.73884 12.7433 4.42187 12.9442 5.13839 12.971C4.536 12.5703 4.04218 12.0267 3.70098 11.3887C3.35979 10.7507 3.18185 10.0382 3.18304 9.31473C3.18304 8.49777 3.39732 7.74777 3.77902 7.09821C5.94196 9.76339 9.18973 11.5045 12.8326 11.692C12.2098 8.71205 14.4397 6.29464 17.1183 6.29464C18.3839 6.29464 19.5223 6.82366 20.3259 7.6808C21.317 7.4933 22.2679 7.125 23.1116 6.62277C22.7835 7.64062 22.0938 8.49777 21.183 9.04018C22.067 8.94643 22.9241 8.69866 23.7143 8.35714C23.1183 9.23438 22.3683 10.0112 21.5112 10.6339Z" fill="black"/>
</g>
<defs>
<clipPath id="clip0_107_56">
<rect width="25" height="25" fill="white"/>
</clipPath>
</defs>
</svg>
